<svg width="4390" height="968" viewBox="0 0 4390 968" fill="none" xmlns="http://www.w3.org/2000/svg">
<g clip-path="url(#clip0_0_1)">
<path fill-rule="evenodd" clip-rule="evenodd" d="M111.967 54.0429C111.967 35.7366 129.171 22.3057 146.928 26.7498L580.618 135.293C593.138 138.426 601.92 149.678 601.92 162.586V854.254C601.92 867.835 592.219 879.478 578.862 881.927L145.172 961.46C127.892 964.629 111.967 951.357 111.967 933.786V54.0429Z" fill="white" fill-opacity="0.3"/>
<path fill-rule="evenodd" clip-rule="evenodd" d="M223.711 54.0429C223.711 35.7366 240.915 22.3057 258.671 26.7498L692.362 135.293C704.882 138.426 713.664 149.678 713.664 162.586V854.254C713.664 867.835 703.963 879.478 690.606 881.927L256.916 961.46C239.636 964.629 223.711 951.357 223.711 933.786V54.0429Z" fill="white" fill-opacity="0.6"/>
<path fill-rule="evenodd" clip-rule="evenodd" d="M341.706 54.0429C341.706 35.7366 358.91 22.3057 376.666 26.7498L810.357 135.293C822.877 138.426 831.659 149.678 831.659 162.586V854.254C831.659 867.835 821.958 879.478 808.601 881.927L374.911 961.46C357.631 964.629 341.706 951.357 341.706 933.786V54.0429Z" fill="white"/>
</g>
<path d="M1489.36 512.048C1489.36 592.764 1471.1 657.306 1434.59 705.671C1398.4 753.717 1349.4 777.74 1287.59 777.74C1239.87 777.74 1200.64 760.283 1169.89 725.37V938.808L1008 968V248.278H1159.33L1164.13 296.323C1195.19 257.887 1236.03 238.669 1286.63 238.669C1350.68 238.669 1400.48 262.371 1436.03 309.776C1471.58 356.861 1489.36 421.722 1489.36 504.361V512.048ZM1327.46 501.958C1327.46 409.711 1300.56 363.587 1246.76 363.587C1208.33 363.587 1182.7 377.36 1169.89 404.906V609.58C1183.99 638.408 1209.93 652.821 1247.72 652.821C1299.28 652.821 1325.86 608.299 1327.46 519.255V501.958Z" fill="white"/>
<path d="M1853.98 768.131C1848.22 757.561 1843.09 742.026 1838.61 721.526C1808.82 759.002 1767.19 777.74 1713.7 777.74C1664.7 777.74 1623.07 763.006 1588.8 733.538C1554.53 703.75 1537.4 666.434 1537.4 621.592C1537.4 565.218 1558.22 522.618 1599.85 493.791C1641.48 464.963 1702.01 450.55 1781.44 450.55H1831.4V423.164C1831.4 375.438 1810.74 351.576 1769.43 351.576C1731 351.576 1711.78 370.474 1711.78 408.27H1549.89C1549.89 357.982 1571.19 317.143 1613.78 285.753C1656.7 254.364 1711.3 238.669 1777.6 238.669C1843.89 238.669 1896.26 254.844 1934.69 287.195C1973.12 319.545 1992.82 363.907 1993.78 420.281V650.419C1994.42 698.144 2001.78 734.659 2015.87 759.963V768.131H1853.98ZM1752.62 662.43C1772.79 662.43 1789.45 658.106 1802.58 649.458C1816.03 640.81 1825.64 631.041 1831.4 620.15V537.032H1784.32C1727.96 537.032 1699.77 562.336 1699.77 612.944C1699.77 627.677 1704.74 639.689 1714.67 648.978C1724.59 657.946 1737.24 662.43 1752.62 662.43Z" fill="white"/>
<path d="M2303.63 652.821C2326.37 652.821 2343.99 646.736 2356.48 634.564C2368.97 622.072 2375.05 604.776 2374.73 582.675H2526.54C2526.54 639.689 2506.04 686.453 2465.05 722.968C2424.37 759.482 2371.85 777.74 2307.48 777.74C2231.89 777.74 2172.32 754.037 2128.77 706.632C2085.21 659.227 2063.43 593.565 2063.43 509.646V502.919C2063.43 450.389 2073.04 404.106 2092.26 364.068C2111.79 323.709 2139.82 292.8 2176.33 271.34C2212.84 249.559 2256.07 238.669 2306.03 238.669C2373.61 238.669 2427.26 257.407 2466.97 294.882C2506.68 332.358 2526.54 383.126 2526.54 447.186H2374.73C2374.73 420.281 2368.17 399.621 2355.04 385.208C2341.9 370.794 2324.29 363.587 2302.19 363.587C2260.24 363.587 2235.74 390.333 2228.69 443.823C2226.45 460.799 2225.33 484.181 2225.33 513.97C2225.33 566.179 2231.57 602.373 2244.06 622.553C2256.55 642.732 2276.41 652.821 2303.63 652.821Z" fill="white"/>
<path d="M2867.14 622.072C2867.14 608.299 2859.93 597.249 2845.52 588.921C2831.11 580.593 2803.73 571.945 2763.37 562.976C2723.02 554.008 2689.71 542.317 2663.45 527.903C2637.19 513.169 2617.17 495.392 2603.4 474.572C2589.63 453.753 2582.74 429.89 2582.74 402.985C2582.74 355.259 2602.44 316.022 2641.83 285.273C2681.23 254.204 2732.79 238.669 2796.52 238.669C2865.06 238.669 2920.14 254.204 2961.78 285.273C3003.41 316.342 3024.23 357.181 3024.23 407.789H2861.85C2861.85 366.15 2839.92 345.33 2796.04 345.33C2779.07 345.33 2764.81 350.134 2753.28 359.744C2741.76 369.032 2735.99 380.723 2735.99 394.817C2735.99 409.23 2743.04 420.922 2757.13 429.89C2771.22 438.859 2793.64 446.225 2824.38 451.991C2855.45 457.756 2882.67 464.643 2906.05 472.651C2984.2 499.556 3023.27 547.762 3023.27 617.268C3023.27 664.673 3002.13 703.269 2959.86 733.057C2917.9 762.846 2863.46 777.74 2796.52 777.74C2752 777.74 2712.29 769.732 2677.38 753.717C2642.47 737.702 2615.25 715.921 2595.71 688.375C2576.18 660.829 2566.41 631.841 2566.41 601.413H2717.74C2718.38 625.435 2726.38 643.052 2741.76 654.263C2757.13 665.153 2776.82 670.598 2800.84 670.598C2822.94 670.598 2839.44 666.114 2850.33 657.145C2861.53 648.177 2867.14 636.486 2867.14 622.072Z" fill="white"/>
<path d="M3581.97 512.528C3581.97 597.729 3564.36 663.231 3529.13 709.035C3493.9 754.838 3444.26 777.74 3380.2 777.74C3327.36 777.74 3284.76 756.76 3252.42 714.8L3245.69 768.131H3100.61V30.1512L3262.51 0.5V290.078C3292.61 255.805 3331.52 238.669 3379.24 238.669C3443.94 238.669 3493.9 261.891 3529.13 308.335C3564.36 354.779 3581.97 420.121 3581.97 504.361V512.528ZM3419.6 502.439C3419.6 452.471 3412.87 416.918 3399.42 395.778C3386.29 374.317 3365.95 363.587 3338.41 363.587C3301.9 363.587 3276.6 377.52 3262.51 405.387V611.983C3276.28 639.529 3301.9 653.302 3339.37 653.302C3377.48 653.302 3401.66 634.724 3411.91 597.569C3417.03 579.312 3419.6 547.602 3419.6 502.439Z" fill="white"/>
<path d="M3824.57 768.131H3662.2V248.278H3824.57V768.131Z" fill="white"/>
<path d="M4073.42 248.278L4078.7 309.296C4114.57 262.211 4164.05 238.669 4227.15 238.669C4281.27 238.669 4321.62 254.844 4348.21 287.195C4375.11 319.545 4389.04 368.232 4390 433.253V768.131H4227.63V439.98C4227.63 413.715 4222.34 394.496 4211.77 382.325C4201.2 369.833 4181.99 363.587 4154.12 363.587C4122.42 363.587 4098.88 376.079 4083.51 401.063V768.131H3921.61V248.278H4073.42Z" fill="white"/>
<path d="M3800.57 53.5371C3784.58 37.8457 3763.96 30 3738.73 30C3713.2 30 3692.28 37.8457 3675.97 53.5371C3659.97 69.2284 3651.97 88.7657 3651.97 112.149C3651.97 135.532 3659.97 155.223 3675.97 171.222C3692.28 186.914 3713.2 194.759 3738.73 194.759C3763.96 194.759 3784.58 186.914 3800.57 171.222C3816.57 155.223 3824.57 135.532 3824.57 112.149C3824.57 88.7657 3816.57 69.2284 3800.57 53.5371Z" fill="white"/>
<defs>
<clipPath id="clip0_0_1">
<rect width="712.659" height="949.549" fill="white" transform="translate(119 18)"/>
</clipPath>
</defs>
</svg>
